<svg width="51" height="61" viewBox="0 0 51 61" fill="none" xmlns="http://www.w3.org/2000/svg">
<path d="M25.441 0.733238C25.421 0.764534 21.3372 4.44859 16.3648 8.91506C11.3973 13.386 7.32845 17.0656 7.32845 17.0969C7.32845 17.1684 9.5401 19.1714 18.836 27.541C28.4664 36.2057 30.3735 37.9314 30.3835 37.9717C30.3985 38.0298 26.5094 41.535 26.4245 41.535C26.3297 41.535 16.0203 32.2757 4.90213 22.2072C4.03843 21.4292 3.29955 20.7899 3.25961 20.7899C3.18972 20.7899 0.11438 23.5037 0.11438 23.5663C0.11438 23.6021 1.97656 25.2787 12.271 34.5425C16.4746 38.3204 21.3472 42.7064 23.0996 44.2891C25.3911 46.3547 26.3197 47.1684 26.3996 47.1684C26.4994 47.1684 29.5897 44.4367 32.6052 41.6736C33.4639 40.8867 33.5637 40.8063 33.6486 40.8599C33.7734 40.9449 37.2581 44.0969 37.2581 44.1326C37.2581 44.1952 25.4061 54.8137 25.3312 54.8137C25.2862 54.8137 23.7486 53.459 21.9064 51.8003C10.7033 41.696 8.82618 40.0149 8.76128 40.0149C8.72134 40.0149 8.34191 40.3323 7.91756 40.7213C7.48821 41.1058 6.81423 41.7183 6.41983 42.0805C6.00545 42.4516 5.70591 42.7645 5.71589 42.8003C5.73087 42.8718 7.15371 44.1729 11.9664 48.5097C13.534 49.927 17.1635 53.1997 20.0292 55.7884C22.8949 58.3771 25.2763 60.4918 25.3262 60.4918C25.3711 60.4918 25.451 60.456 25.5059 60.4069C26.4445 59.6021 43.5985 44.1595 43.5985 44.1192C43.5985 44.0879 43.5785 44.0388 43.5586 44.0119C43.5186 43.9538 34.8518 36.1252 29.2852 31.1177C27.3581 29.383 25.2962 27.5231 24.6971 26.9821C24.103 26.4411 22.9298 25.3815 22.0911 24.6259C20.7831 23.4501 20.5734 23.2399 20.6133 23.1639C20.6782 23.0432 24.4375 19.6274 24.5074 19.6274C24.5623 19.6274 26.8738 21.6975 33.394 27.5857C35.0914 29.1192 38.2616 31.9762 40.4383 33.9344C42.61 35.8882 45.1162 38.1461 46.0049 38.9553C46.8935 39.7601 47.6374 40.4173 47.6673 40.4173C47.7422 40.4173 50.7876 37.6766 50.7876 37.6051C50.7876 37.5738 48.526 35.5127 45.7602 33.0268C42.9894 30.541 40.5831 28.3771 40.4033 28.2116C40.2236 28.0507 37.2931 25.4083 33.8882 22.3368C30.4834 19.2698 27.0136 16.1356 26.1749 15.3756C25.0017 14.3115 24.6222 13.994 24.5274 13.994C24.4275 13.9896 23.6887 14.6334 20.9079 17.1461C18.9858 18.8808 17.3782 20.2981 17.3383 20.2981C17.2983 20.2981 16.4696 19.5872 15.5011 18.7198C14.1581 17.5171 13.7387 17.1148 13.7537 17.0477C13.7687 16.9493 25.5059 6.34874 25.6008 6.34874C25.6557 6.34874 26.3047 6.92996 31.9012 11.9821C36.1448 15.8137 41.9061 21.0089 42.0209 21.1073C42.0758 21.1565 42.1407 21.1923 42.1707 21.1923C42.2505 21.1923 45.246 18.4471 45.231 18.389C45.226 18.3577 44.2575 17.4635 43.0793 16.3994C41.8961 15.3353 38.5611 12.3219 35.6655 9.70641C32.7649 7.08644 29.3501 4.00149 28.072 2.84799C26.794 1.69896 25.7455 0.733238 25.7356 0.710883C25.7106 0.64829 25.4859 0.661703 25.441 0.733238Z" fill="black"/>
</svg>
